<svg version="1.1" id="Layer_1" xmlns="http://www.w3.org/2000/svg" xmlns:xlink="http://www.w3.org/1999/xlink" x="0px" y="0px"
	 width="100%" viewBox="0 0 2085 2085" enable-background="new 0 0 2085 2085" xml:space="preserve">
<path fill="#000000" opacity="1.000000" stroke="none" 
	d="
M1154.000000,2088.000000 
	C769.379211,2088.000000 385.758362,2088.000000 2.068777,2088.000000 
	C2.068777,1392.795654 2.068777,697.591248 2.068777,2.193423 
	C697.121216,2.193423 1392.242432,2.193423 2087.681885,2.193423 
	C2087.681885,697.333191 2087.681885,1392.666626 2087.681885,2088.000000 
	C1776.923706,2088.000000 1465.961792,2088.000000 1154.000000,2088.000000 
M1354.727783,2027.730957 
	C1367.992432,2023.333984 1381.404053,2019.332764 1394.495483,2014.469360 
	C1441.996948,1996.822632 1488.485596,1976.948486 1533.095459,1952.697144 
	C1578.238647,1928.156006 1621.704956,1901.043335 1662.698975,1870.116699 
	C1690.552124,1849.103638 1717.903320,1827.417236 1742.962036,1802.982544 
	C1757.939941,1788.377686 1774.019165,1775.030151 1788.136230,1759.380371 
	C1804.623047,1741.103638 1821.452148,1723.184814 1837.288818,1704.284668 
	C1861.057373,1675.918335 1883.496338,1646.580933 1903.830444,1615.728882 
	C1931.699829,1573.444092 1957.714722,1530.004150 1978.132812,1483.523071 
	C1990.583008,1455.180298 2003.358887,1426.897949 2014.000488,1397.859985 
	C2039.271118,1328.903809 2056.989014,1258.011597 2066.562500,1185.046021 
	C2070.933594,1151.730225 2074.315186,1118.327271 2075.535645,1084.858032 
	C2077.062500,1042.982788 2076.474365,1001.047791 2072.414551,959.185547 
	C2069.718506,931.383240 2066.683838,903.688599 2062.302002,876.094543 
	C2053.980469,823.690002 2041.317261,772.365906 2024.815063,721.995483 
	C2012.987671,685.894043 1998.793701,650.699951 1983.190186,616.037903 
	C1964.552490,574.635681 1942.968872,534.808533 1918.620728,496.597839 
	C1901.287598,469.396301 1882.445190,443.090637 1863.167969,417.210815 
	C1839.720093,385.732025 1814.075928,356.029663 1785.937866,328.557404 
	C1771.921387,314.872498 1758.688843,300.323853 1744.056763,287.343689 
	C1720.433472,266.387146 1696.635010,245.509491 1671.628662,226.264191 
	C1647.389893,207.609604 1621.967285,190.389145 1596.297607,173.719864 
	C1546.432739,141.338715 1493.448608,114.761269 1438.603882,91.885696 
	C1400.452148,75.972733 1361.392090,62.640579 1321.528198,51.739204 
	C1303.553589,46.823765 1285.496460,42.077805 1267.264648,38.270626 
	C1246.788574,33.994766 1226.150269,30.323206 1205.442871,27.368624 
	C1176.187500,23.194427 1146.871216,19.176275 1117.452637,16.507399 
	C1096.032593,14.564158 1074.408569,14.733903 1052.868774,14.295077 
	C1038.286499,13.997996 1023.692627,14.277911 1009.103943,14.308641 
	C1008.439209,14.310041 1007.774048,14.392390 1007.109985,14.448135 
	C985.266296,16.282034 963.384949,17.758335 941.589355,20.050417 
	C918.472046,22.481499 895.316895,24.967382 872.399658,28.765358 
	C851.103638,32.294666 830.039001,37.321190 808.979797,42.155994 
	C770.664307,50.952503 732.940247,61.870544 695.977051,75.282036 
	C643.570862,94.296783 593.088501,117.560165 544.386230,144.682281 
	C497.458344,170.816269 452.668152,200.105652 410.722107,233.777100 
	C382.704010,256.268097 354.741272,278.741425 329.687653,304.604980 
	C315.133606,319.629517 300.309723,334.392426 285.713043,349.376160 
	C282.474701,352.700348 279.666260,356.445526 276.686676,360.019226 
	C257.942444,382.501434 238.143295,404.203156 220.751297,427.687286 
	C201.559464,453.601746 184.144318,480.875275 166.731323,508.054047 
	C137.723938,553.329651 114.067284,601.419617 93.552406,651.078308 
	C77.129410,690.832092 62.994122,731.382080 51.917156,772.950073 
	C37.418400,827.358887 26.391691,882.422546 21.697739,938.632263 
	C19.874149,960.469482 16.854324,982.275024 16.354342,1004.140137 
	C15.388396,1046.382690 14.957522,1088.688110 19.835032,1130.795410 
	C23.044790,1158.505249 25.975821,1186.260376 29.908533,1213.870361 
	C36.209850,1258.109497 46.838402,1301.445923 59.931522,1344.117188 
	C79.319054,1407.301880 103.199638,1468.741943 135.458740,1526.579102 
	C151.989029,1556.216187 169.049576,1585.623169 187.329239,1614.201172 
	C207.596725,1645.886963 230.216827,1675.992798 255.052032,1704.333984 
	C273.239166,1725.088501 291.016418,1746.236572 309.942322,1766.297974 
	C324.518280,1781.748413 340.142731,1796.298096 356.106201,1810.332275 
	C385.079071,1835.803833 414.904785,1860.285400 446.306580,1882.753296 
	C487.278595,1912.068604 530.268188,1938.148315 574.984863,1961.292114 
	C617.333801,1983.210571 661.061768,2002.094238 706.302551,2017.230469 
	C731.842407,2025.775391 757.462952,2034.312134 783.519775,2041.015259 
	C811.497925,2048.212891 839.995911,2053.424805 868.335144,2059.166992 
	C881.366455,2061.807617 894.496277,2064.200439 907.694763,2065.723389 
	C929.799194,2068.274414 951.969421,2070.370605 974.158508,2072.039795 
	C996.017822,2073.684082 1017.938721,2075.591553 1039.825562,2075.508301 
	C1066.054565,2075.408691 1092.306396,2073.766113 1118.491577,2071.964844 
	C1141.683350,2070.369873 1164.957031,2068.683105 1187.905151,2065.154297 
	C1217.453003,2060.610596 1246.866089,2054.879150 1276.049927,2048.371094 
	C1301.979248,2042.589111 1327.516479,2035.049561 1354.727783,2027.730957 
z"/>
<path fill="#043638" opacity="1.000000" stroke="none" 
	d="
M1353.977295,2028.008301 
	C1327.516479,2035.049561 1301.979248,2042.589111 1276.049927,2048.371094 
	C1246.866089,2054.879150 1217.453003,2060.610596 1187.905151,2065.154297 
	C1164.957031,2068.683105 1141.683350,2070.369873 1118.491577,2071.964844 
	C1092.306396,2073.766113 1066.054565,2075.408691 1039.825562,2075.508301 
	C1017.938721,2075.591553 996.017822,2073.684082 974.158508,2072.039795 
	C951.969421,2070.370605 929.799194,2068.274414 907.694763,2065.723389 
	C894.496277,2064.200439 881.366455,2061.807617 868.335144,2059.166992 
	C839.995911,2053.424805 811.497925,2048.212891 783.519775,2041.015259 
	C757.462952,2034.312134 731.842407,2025.775391 706.302551,2017.230469 
	C661.061768,2002.094238 617.333801,1983.210571 574.984863,1961.292114 
	C530.268188,1938.148315 487.278595,1912.068604 446.306580,1882.753296 
	C414.904785,1860.285400 385.079071,1835.803833 356.106201,1810.332275 
	C340.142731,1796.298096 324.518280,1781.748413 309.942322,1766.297974 
	C291.016418,1746.236572 273.239166,1725.088501 255.052032,1704.333984 
	C230.216827,1675.992798 207.596725,1645.886963 187.329239,1614.201172 
	C169.049576,1585.623169 151.989029,1556.216187 135.458740,1526.579102 
	C103.199638,1468.741943 79.319054,1407.301880 59.931522,1344.117188 
	C46.838402,1301.445923 36.209850,1258.109497 29.908533,1213.870361 
	C25.975821,1186.260376 23.044790,1158.505249 19.835032,1130.795410 
	C14.957522,1088.688110 15.388396,1046.382690 16.354342,1004.140137 
	C16.854324,982.275024 19.874149,960.469482 21.697739,938.632263 
	C26.391691,882.422546 37.418400,827.358887 51.917156,772.950073 
	C62.994122,731.382080 77.129410,690.832092 93.552406,651.078308 
	C114.067284,601.419617 137.723938,553.329651 166.731323,508.054047 
	C184.144318,480.875275 201.559464,453.601746 220.751297,427.687286 
	C238.143295,404.203156 257.942444,382.501434 276.686676,360.019226 
	C279.666260,356.445526 282.474701,352.700348 285.713043,349.376160 
	C300.309723,334.392426 315.133606,319.629517 329.687653,304.604980 
	C354.741272,278.741425 382.704010,256.268097 410.722107,233.777100 
	C452.668152,200.105652 497.458344,170.816269 544.386230,144.682281 
	C593.088501,117.560165 643.570862,94.296783 695.977051,75.282036 
	C732.940247,61.870544 770.664307,50.952503 808.979797,42.155994 
	C830.039001,37.321190 851.103638,32.294666 872.399658,28.765358 
	C895.316895,24.967382 918.472046,22.481499 941.589355,20.050417 
	C963.384949,17.758335 985.266296,16.282034 1007.109985,14.448135 
	C1007.774048,14.392390 1008.439209,14.310041 1009.103943,14.308641 
	C1023.692627,14.277911 1038.286499,13.997996 1052.868774,14.295077 
	C1074.408569,14.733903 1096.032593,14.564158 1117.452637,16.507399 
	C1146.871216,19.176275 1176.187500,23.194427 1205.442871,27.368624 
	C1226.150269,30.323206 1246.788574,33.994766 1267.264648,38.270626 
	C1285.496460,42.077805 1303.553589,46.823765 1321.528198,51.739204 
	C1361.392090,62.640579 1400.452148,75.972733 1438.603882,91.885696 
	C1493.448608,114.761269 1546.432739,141.338715 1596.297607,173.719864 
	C1621.967285,190.389145 1647.389893,207.609604 1671.628662,226.264191 
	C1696.635010,245.509491 1720.433472,266.387146 1744.056763,287.343689 
	C1758.688843,300.323853 1771.921387,314.872498 1785.937866,328.557404 
	C1814.075928,356.029663 1839.720093,385.732025 1863.167969,417.210815 
	C1882.445190,443.090637 1901.287598,469.396301 1918.620728,496.597839 
	C1942.968872,534.808533 1964.552490,574.635681 1983.190186,616.037903 
	C1998.793701,650.699951 2012.987671,685.894043 2024.815063,721.995483 
	C2041.317261,772.365906 2053.980469,823.690002 2062.302002,876.094543 
	C2066.683838,903.688599 2069.718506,931.383240 2072.414551,959.185547 
	C2076.474365,1001.047791 2077.062500,1042.982788 2075.535645,1084.858032 
	C2074.315186,1118.327271 2070.933594,1151.730225 2066.562500,1185.046021 
	C2056.989014,1258.011597 2039.271118,1328.903809 2014.000488,1397.859985 
	C2003.358887,1426.897949 1990.583008,1455.180298 1978.132812,1483.523071 
	C1957.714722,1530.004150 1931.699829,1573.444092 1903.830444,1615.728882 
	C1883.496338,1646.580933 1861.057373,1675.918335 1837.288818,1704.284668 
	C1821.452148,1723.184814 1804.623047,1741.103638 1788.136230,1759.380371 
	C1774.019165,1775.030151 1757.939941,1788.377686 1742.962036,1802.982544 
	C1717.903320,1827.417236 1690.552124,1849.103638 1662.698975,1870.116699 
	C1621.704956,1901.043335 1578.238647,1928.156006 1533.095459,1952.697144 
	C1488.485596,1976.948486 1441.996948,1996.822632 1394.495483,2014.469360 
	C1381.404053,2019.332764 1367.992432,2023.333984 1353.977295,2028.008301 
M1232.090942,396.879791 
	C1186.237305,378.916321 1138.859497,367.569794 1089.724731,363.459381 
	C1020.094421,357.634399 952.057251,365.163483 885.826294,387.537262 
	C679.113892,457.367737 542.006165,648.661194 541.997559,867.019287 
	C541.989136,1081.650024 541.995605,1296.280762 541.995972,1510.911499 
	C541.995972,1514.244263 541.951416,1517.577881 542.011597,1520.909668 
	C542.640320,1555.721558 566.694946,1585.283691 600.776733,1592.142212 
	C609.484070,1593.894409 618.637756,1593.938965 627.583252,1593.905884 
	C660.290344,1593.784668 689.341064,1571.829224 697.820007,1540.295288 
	C700.120056,1531.741089 700.774597,1522.548218 700.873840,1513.633911 
	C701.226135,1481.976562 700.855347,1450.311768 701.058899,1418.651611 
	C701.247375,1389.325317 718.990662,1365.933228 746.696411,1359.448730 
	C761.702271,1355.936646 777.284912,1355.949829 792.287842,1359.434448 
	C819.619446,1365.782593 837.890503,1389.474976 837.956970,1417.612915 
	C838.081360,1470.270386 837.994080,1522.928467 837.996033,1575.586304 
	C837.996948,1601.581909 837.871826,1627.578491 838.042297,1653.572998 
	C838.187622,1675.723267 846.427185,1694.507446 862.910095,1709.345825 
	C878.855225,1723.700317 897.884277,1728.941772 919.150452,1728.259521 
	C939.857056,1727.595581 957.411316,1720.356201 971.878845,1705.660156 
	C987.267090,1690.028564 993.134460,1670.850952 993.063538,1649.267700 
	C992.898132,1598.943237 993.010864,1548.618042 993.011414,1498.293091 
	C993.011719,1470.297729 992.839417,1442.301147 993.063660,1414.307495 
	C993.278381,1387.501953 1008.964966,1365.313843 1033.406494,1356.955322 
	C1046.986206,1352.311523 1061.083374,1352.218628 1074.863037,1355.106934 
	C1103.157104,1361.037476 1122.001831,1384.743652 1122.280640,1413.940918 
	C1122.496948,1436.601807 1122.080322,1459.269653 1122.381714,1481.928589 
	C1123.061646,1533.045654 1172.541382,1568.190918 1220.760376,1552.001587 
	C1251.244263,1541.766724 1271.108398,1513.731689 1271.373047,1480.192871 
	C1271.554565,1457.198364 1270.988037,1434.189819 1271.574829,1411.208496 
	C1272.228394,1385.612671 1289.560181,1363.611816 1313.728760,1356.236084 
	C1338.462402,1348.687866 1364.989136,1357.667114 1380.196411,1378.734741 
	C1388.288696,1389.945435 1391.693970,1402.555908 1391.680664,1416.278687 
	C1391.634888,1463.604126 1391.449097,1510.930908 1391.739380,1558.254517 
	C1391.961304,1594.423462 1415.979736,1623.538208 1451.464233,1630.593994 
	C1459.841064,1632.259521 1468.681152,1632.000610 1477.303589,1631.942627 
	C1496.100586,1631.816040 1512.496582,1625.029053 1526.168213,1612.262817 
	C1542.950684,1596.591675 1550.097900,1576.961914 1550.084595,1554.053223 
	C1549.952148,1325.091553 1549.985840,1096.129883 1550.024414,867.168274 
	C1550.030151,833.415955 1546.764526,800.029968 1540.299927,766.894409 
	C1507.963989,601.148560 1390.813477,460.043671 1232.090942,396.879791 
z"/>
<path fill="#F3ECDB" opacity="1.000000" stroke="none" 
	d="
M1232.785278,397.218506 
	C1390.813477,460.043671 1507.963989,601.148560 1540.299927,766.894409 
	C1546.764526,800.029968 1550.030151,833.415955 1550.024414,867.168274 
	C1549.985840,1096.129883 1549.952148,1325.091553 1550.084595,1554.053223 
	C1550.097900,1576.961914 1542.950684,1596.591675 1526.168213,1612.262817 
	C1512.496582,1625.029053 1496.100586,1631.816040 1477.303589,1631.942627 
	C1468.681152,1632.000610 1459.841064,1632.259521 1451.464233,1630.593994 
	C1415.979736,1623.538208 1391.961304,1594.423462 1391.739380,1558.254517 
	C1391.449097,1510.930908 1391.634888,1463.604126 1391.680664,1416.278687 
	C1391.693970,1402.555908 1388.288696,1389.945435 1380.196411,1378.734741 
	C1364.989136,1357.667114 1338.462402,1348.687866 1313.728760,1356.236084 
	C1289.560181,1363.611816 1272.228394,1385.612671 1271.574829,1411.208496 
	C1270.988037,1434.189819 1271.554565,1457.198364 1271.373047,1480.192871 
	C1271.108398,1513.731689 1251.244263,1541.766724 1220.760376,1552.001587 
	C1172.541382,1568.190918 1123.061646,1533.045654 1122.381714,1481.928589 
	C1122.080322,1459.269653 1122.496948,1436.601807 1122.280640,1413.940918 
	C1122.001831,1384.743652 1103.157104,1361.037476 1074.863037,1355.106934 
	C1061.083374,1352.218628 1046.986206,1352.311523 1033.406494,1356.955322 
	C1008.964966,1365.313843 993.278381,1387.501953 993.063660,1414.307495 
	C992.839417,1442.301147 993.011719,1470.297729 993.011414,1498.293091 
	C993.010864,1548.618042 992.898132,1598.943237 993.063538,1649.267700 
	C993.134460,1670.850952 987.267090,1690.028564 971.878845,1705.660156 
	C957.411316,1720.356201 939.857056,1727.595581 919.150452,1728.259521 
	C897.884277,1728.941772 878.855225,1723.700317 862.910095,1709.345825 
	C846.427185,1694.507446 838.187622,1675.723267 838.042297,1653.572998 
	C837.871826,1627.578491 837.996948,1601.581909 837.996033,1575.586304 
	C837.994080,1522.928467 838.081360,1470.270386 837.956970,1417.612915 
	C837.890503,1389.474976 819.619446,1365.782593 792.287842,1359.434448 
	C777.284912,1355.949829 761.702271,1355.936646 746.696411,1359.448730 
	C718.990662,1365.933228 701.247375,1389.325317 701.058899,1418.651611 
	C700.855347,1450.311768 701.226135,1481.976562 700.873840,1513.633911 
	C700.774597,1522.548218 700.120056,1531.741089 697.820007,1540.295288 
	C689.341064,1571.829224 660.290344,1593.784668 627.583252,1593.905884 
	C618.637756,1593.938965 609.484070,1593.894409 600.776733,1592.142212 
	C566.694946,1585.283691 542.640320,1555.721558 542.011597,1520.909668 
	C541.951416,1517.577881 541.995972,1514.244263 541.995972,1510.911499 
	C541.995605,1296.280762 541.989136,1081.650024 541.997559,867.019287 
	C542.006165,648.661194 679.113892,457.367737 885.826294,387.537262 
	C952.057251,365.163483 1020.094421,357.634399 1089.724731,363.459381 
	C1138.859497,367.569794 1186.237305,378.916321 1232.785278,397.218506 
M1012.845398,1134.314819 
	C1034.618530,1139.187378 1056.456299,1139.353271 1078.266968,1134.787598 
	C1149.460083,1119.884644 1204.240723,1062.489868 1215.501953,990.684875 
	C1216.748047,982.739441 1219.015503,974.574036 1216.985718,966.409973 
	C1102.548706,966.409973 988.748657,966.409973 874.960144,966.409973 
	C873.836792,1035.354370 925.059875,1114.741455 1012.845398,1134.314819 
M822.112610,791.066284 
	C799.759460,808.719116 787.928345,831.696533 786.185913,861.540344 
	C814.917480,847.578186 843.805481,839.924622 874.647400,839.910034 
	C905.245117,839.895508 933.872925,847.872192 962.487366,861.269470 
	C961.986267,855.832275 961.921387,852.182251 961.282776,848.635620 
	C949.579773,783.636658 876.786133,751.331238 822.112610,791.066284 
M1284.118286,804.909790 
	C1261.175781,779.348877 1232.846924,768.153809 1199.008789,775.698608 
	C1164.921997,783.298645 1143.421021,805.482239 1133.124023,838.518494 
	C1130.997192,845.341858 1130.457886,852.659973 1128.829712,861.742920 
	C1188.701782,832.713074 1246.951172,832.834412 1305.709595,861.357239 
	C1304.702026,839.607788 1297.789185,821.708862 1284.118286,804.909790 
z"/>
<path fill="#053739" opacity="1.000000" stroke="none" 
	d="
M1012.011353,1134.184814 
	C925.059875,1114.741455 873.836792,1035.354370 874.960144,966.409973 
	C988.748657,966.409973 1102.548706,966.409973 1216.985718,966.409973 
	C1219.015503,974.574036 1216.748047,982.739441 1215.501953,990.684875 
	C1204.240723,1062.489868 1149.460083,1119.884644 1078.266968,1134.787598 
	C1056.456299,1139.353271 1034.618530,1139.187378 1012.011353,1134.184814 
z"/>
<path fill="#07383A" opacity="1.000000" stroke="none" 
	d="
M822.684082,790.626465 
	C876.786133,751.331238 949.579773,783.636658 961.282776,848.635620 
	C961.921387,852.182251 961.986267,855.832275 962.487366,861.269470 
	C933.872925,847.872192 905.245117,839.895508 874.647400,839.910034 
	C843.805481,839.924622 814.917480,847.578186 786.185913,861.540344 
	C787.928345,831.696533 799.759460,808.719116 822.684082,790.626465 
z"/>
<path fill="#08383A" opacity="1.000000" stroke="none" 
	d="
M1284.585327,805.448669 
	C1297.789185,821.708862 1304.702026,839.607788 1305.709595,861.357239 
	C1246.951172,832.834412 1188.701782,832.713074 1128.829712,861.742920 
	C1130.457886,852.659973 1130.997192,845.341858 1133.124023,838.518494 
	C1143.421021,805.482239 1164.921997,783.298645 1199.008789,775.698608 
	C1232.846924,768.153809 1261.175781,779.348877 1284.585327,805.448669 
z"/>
</svg>